# xmcd CD database file
#
# Track frame offsets:
#	150
#	16220
#	29525
#	45071
#	57848
#	74719
#	95080
#	107769
#	125631
#	141209
#
# Disc length: 2152 seconds
#
# Revision: 0
# Processed by: cddbd v1.5.2PL0 Copyright (c) Steve Scherf et al.
# Submitted via: CDex 1.70beta2
#
DISCID=8b08660a
DTITLE=Chuck Moore - An Old Country Record Speaks
DYEAR=1900
DGENRE=Country
TTITLE0=Between You And Me
TTITLE1=Hobo's Meditation
TTITLE2=Who's Looking Over Your Left Shoulder Now
TTITLE3=A Mansion On The Hill
TTITLE4=What's Wrong Friend
TTITLE5=An Old Country Record Speaks
TTITLE6=I Saw The Light
TTITLE7=Whiskey Clouds
TTITLE8=Seasons Of My Heart
TTITLE9=Fame Came Home Again
EXTD=
EXTT0=
EXTT1=
EXTT2=
EXTT3=
EXTT4=
EXTT5=
EXTT6=
EXTT7=
EXTT8=
EXTT9=
PLAYORDER=
